<svg xmlns="http://www.w3.org/2000/svg" viewBox="0 0 2183 892"><g fill="none" stroke-width="2"><path stroke="#6c845d" d="M588.3 236.18a39.06 39.06 0 0 0-39.06-39.06 39.06 39.06 0 0 0-39.06 39.06 39.06 39.06 0 0 0 39.06 39.06 39.06 39.06 0 0 0 39.06-39.06M760.14 468.64c-9.79.44-20.48.76-21.84-9.96q-.73-5.74-.14-18.38.02-.49.41-.78l25.5-18.98q.47-.35.83.11 13.27 16.85 26.29 33.91c1.86 2.43 5.45 7.3 4.15 10.43-1.87 4.48-13.61 3.85-19.59 3.73q-.55-.01-.54.54l.27 39.7q.01.78.79.78l130.47.03q.76 0 .76-.76v-39.72q0-.52-.52-.54-11.1-.41-16.48-1.27c-7.65-1.24-12.91-6.66-17.74-12.25q-30.3-35.07-60.49-70.32-.35-.39.08-.7 19.79-14.52 39.6-29.03 9.84-7.2 20.42-13.26c6.51-3.72 13.76-3.42 21.88-3.66q.5-.01.5-.51v-40.32a.39.39 0 0 0-.39-.39l-128.55.1q-1.31 0-1.31 1.3v39.33q0 .57.57.56c8.37-.18 34.16-1.46 16.5 13.5q-21.65 18.33-43.17 36.61a.24.24 0 0 1-.4-.18V197.71q0-.64-.64-.66c-6.73-.13-17.19-1.22-23.41 1.07-24.17 8.87-49.56 15.11-75.33 16.49a.4.39 88.5 0 0-.37.4v40.74q0 .5.5.5h30.03a.71.71 0 0 1 .71.71q.03 95.31-.01 190.73c0 7.91.78 19.44-10.24 20.29q-6.86.52-20.4.66-.59.01-.59.59v40.02q0 .5.5.5h121.34q.66 0 .66-.66v-39.86q0-.61-.61-.59M1033.52 236.18a39.06 39.06 0 0 0-39.06-39.06 39.06 39.06 0 0 0-39.06 39.06 39.06 39.06 0 0 0 39.06 39.06 39.06 39.06 0 0 0 39.06-39.06" vector-effect="non-scaling-stroke"/><path stroke="#c9dcba" d="M1332.97 379.07q.1 33.69 0 67.66c-.04 11.9-1.1 19.45-14.71 21.19q-10.34 1.33-20.93.66-.58-.03-.58.54c-.1 13.25.76 26.75-.02 39.89a.76.76 0 0 0 .76.81l144.49-.03q.52 0 .52-.52v-40.02q0-.62-.62-.59-12.44.44-22.82-.74c-12.19-1.39-12.3-13.85-12.3-23.17q-.03-84.4 0-168.81c.01-9.5.16-19.54 11.26-21.46q7.15-1.24 23.85-.59.63.03.63-.61V213q0-.5-.5-.5h-144.78q-.53 0-.52.53l.27 39.73q.01 1.09 1.1 1.05 12.34-.46 23.66.86c8.68 1.01 11.14 8.03 11.23 15.65q.16 13.29-.01 61.21 0 .47-.47.47h-107q-.67 0-.68-.67-.27-30.11.44-58.76c.3-12.11 3.23-17.57 16.05-18.51q9.37-.69 18.54-.17.92.05.92-.88V213a.5.5 0 0 0-.5-.5H1116q-.5 0-.5.5v40.27q0 .6.59.58 15.05-.46 22.16.39c12.3 1.47 13.02 13.34 13.02 23.76q-.02 84.75-.02 169.5c0 9.43-1.28 18.55-12.35 20.17q-10.46 1.52-22.81.99-.59-.02-.59.57v40.08q0 .5.5.5l144.4-.05a.35.35 0 0 0 .35-.35v-40.18q0-.6-.6-.57-11.44.52-22.77-.78c-11.63-1.34-12.23-9.59-12.35-19.13q-.43-34.9-.14-69.65a.62.61 0 0 1 .62-.61l106.91.03a.55.55 0 0 1 .55.55" vector-effect="non-scaling-stroke"/><path stroke="#6c845d" d="M515.72 351.49q.09 49.51.04 99.01c-.01 7.31.02 16.26-7.79 17.53q-6.09 1-23.27.65-.5-.01-.5.5l.02 40.13q0 .57.55.71.2.05.38-.07.23-.15.51-.15l129.62-.07q.51 0 .51-.51l-.04-39.96q0-.51-.52-.51-9.84.12-19.66-.42c-11-.61-11.84-5.92-11.83-15.59q.04-80.03 0-160.11 0-.56-.56-.57c-5.35-.12-17.36-1.27-21.88 1.05-23.54 12.06-50.78 15.83-76.63 17.66q-.47.03-.47.5l.06 38.99q0 .74.75.74h30.21q.5 0 .5.49M1061.14 509.43l.12-40.21a.59.58 89.1 0 0-.6-.59q-14.88.57-24.16-.78c-7.35-1.08-7.25-8.26-7.26-14.11q-.21-80.55-.29-161.14 0-.53-.54-.54c-5.25-.11-17.42-1.26-21.81 1.02-22.75 11.82-50.89 16.26-76.58 17.63q-.48.03-.48.51l-.12 39.55a.23.23 0 0 0 .23.23h30.36q.73 0 .74.74.04 53.61-.04 106.45c-.01 7.27-4.75 9.71-11.55 10.15q-9.53.61-19.17.37-.59-.01-.59.57l.08 40.09q0 .33.33.33l130.89.17a.44.44 0 0 0 .44-.44" vector-effect="non-scaling-stroke"/><path stroke="#c9dcba" d="M1462.83 424.97c10.84 75.36 87.31 100.46 152.65 86.25 39.88-8.68 71.86-39.2 80.79-79.22 14.03-62.88-17.3-121.62-81.59-136.14-35.52-8.02-74.6-4.23-105.85 15.72-40.32 25.74-52.57 67.7-46 113.39" vector-effect="non-scaling-stroke"/><path stroke="#6c845d" d="m297.5 425.52 31.15 83.75a.78.76-9.6 0 0 .73.51l55.65-.02q.42 0 .57-.39 28.87-76.65 57.74-153.29c3.2-8.49 6.54-17.25 17.36-17.49q3.64-.07 7.3-.32.5-.04.5-.53v-40.07q0-.58-.58-.58l-94.23.03q-.94.01-.94.94v39.7q0 .55.55.53 6.96-.26 13.77.97c10.72 1.93 5 14.63 2.84 21.1q-12.15 36.37-24.74 72.73-.23.65-.45 0-13.29-38.96-26.21-78.05c-5.76-17.45 5.46-17.23 19.14-16.7q.6.03.6-.57v-40q0-.73-.73-.73l-105.98.07a.54.54 0 0 0-.54.54v40.12a.67.66 1.4 0 0 .64.66c14.3.55 16.89 8.81 21.37 21.64q2.51 7.18 4.87 14.45.13.42-.01.83L252.6 445.9q-.28.78-.54-.01-14.47-44.68-29.05-89.64c-5.27-16.26-.6-18.18 15.17-17.94a.56.56 0 0 0 .57-.56v-39.98a.73.72 0 0 0-.73-.72l-111.47.11q-.55 0-.55.54v40.06q0 .56.56.58c4.23.08 11.24-.1 14.73 2.52 7.03 5.28 10.18 15.56 13.56 24.73q26.51 71.92 52.95 143.7a.73.71-9.5 0 0 .66.46l56.09.05q.45 0 .61-.43l31.66-83.86a.37.36 45.4 0 1 .68.01" vector-effect="non-scaling-stroke"/><path stroke="#c9dcba" d="M1953.74 433.33a.18.18 0 0 1-.34 0q-13.69-40.48-27.11-80.89c-5.34-16.07 11.51-14.36 20.21-14.21q.5.01.5-.49v-40.23q0-.3-.3-.3l-106.46.06q-.49 0-.49.49v40.25q0 .54.54.54c11.13-.05 15.62 5.82 19.33 15.88q3.66 9.93 6.87 20.01.16.51-.02 1.02l-25.33 70.69a.19.18 46.1 0 1-.35-.01q-14.98-46.1-29.89-92.32c-4.94-15.29 4.07-16.21 16.17-15.42a.41.4-88 0 0 .43-.41v-40.6a.17.16 0 0 0-.17-.16l-112.08.01q-.52 0-.52.51l-.08 40.08q0 .54.53.56c4.47.18 12.48-.27 15.8 3.13 3.93 4.03 6.88 9.36 9.11 15.16 19.49 50.6 37.66 101.86 56.38 152.77q.17.46.66.46l56.03-.19q.52 0 .71-.49l31.62-83.79q.32-.84.63 0l31.23 84.05q.17.47.68.47l55.82-.21a.29.29 0 0 0 .27-.19q29.62-78.57 59.37-156.68c4.9-12.85 8.95-14.42 23.19-14.55a.58.57-.5 0 0 .57-.57v-40.25q0-.31-.31-.31l-95.08.07q-.37 0-.37.37v40.32a.33.33 0 0 0 .34.33c12.68-.43 24.44-.68 18.4 17.2q-13.17 39.01-26.49 77.84M1879.765 562.317a.3.3 0 0 0-.3-.3l-19.4-.034a.3.3 0 0 0-.3.3l-.03 17.42a.3.3 0 0 0 .3.3l19.4.034a.3.3 0 0 0 .3-.3l.03-17.42M1329.83 654.77l.24 8.75a.52.52 0 0 0 .52.51h18.02a.39.38-89.3 0 0 .39-.39V563.25q0-.5-.5-.5h-19q-.5 0-.5.5v34.42a.26.26 0 0 1-.47.15c-8.52-12.82-26.57-13.52-38.18-4.92-25.06 18.55-17.7 79.76 22.07 73.03 7.46-1.26 12.83-5.06 16.84-11.32q.54-.85.57.16M1797.35 598l.19-34.48q0-.52-.52-.52h-18.77q-.5 0-.5.5v100.05q0 .56.55.56l18.41.17q.54.01.55-.54.29-20.84.26-41.68c-.01-9.46 4.31-18.38 14.98-18.75 8.8-.3 12.75 6.16 12.75 14.19v46.32a.25.24 0 0 0 .25.24l19.31.04q.4 0 .4-.4.13-20.89 0-41.74c-.1-16-.1-27.97-15.85-33.28q-19.37-6.53-31.78 9.4-.23.3-.23-.08M1115.48 604.25q.05 21.22.03 42.45-.01 7.79 1.42 10.79c4.38 9.17 20.88 8.1 29.55 7.1q.52-.06.52-.58v-13.08q0-.52-.52-.55l-9.04-.54a2.25 2.24 87.1 0 1-2.09-1.9q-.57-3.63-.59-7.95-.07-17.82.02-35.75a.49.49 0 0 1 .49-.49h11.23q.5 0 .5-.5v-13q0-.5-.5-.5h-11.11a.66.66 0 0 1-.66-.67l.07-19.8q.01-.53-.52-.53H1116q-.5 0-.5.5v19.87a.63.63 0 0 1-.63.63h-9.37q-.5 0-.5.5v12.87a.63.62-90 0 0 .62.63h9.36q.5 0 .5.5M1731.99 604.25q.03 21.93.04 43.85c0 5.26.56 10.47 4.5 13.36 6.46 4.73 18.69 3.87 26.58 3.2q.42-.04.42-.46l-.02-13.51q0-.51-.51-.49c-3.88.12-11.42 1.35-11.45-4.71q-.11-20.6-.03-41.24 0-.5.5-.5h10.97q.73 0 .73-.74l-.07-12.41q-.01-.85-.86-.85H1752q-.5 0-.5-.5v-20q0-.5-.5-.5h-18.5q-.5 0-.5.5v19.87a.63.63 0 0 1-.63.63H1722q-.5 0-.5.5v13q0 .5.5.5h9.48q.51 0 .51.5" vector-effect="non-scaling-stroke"/><path stroke="#c9dcba" d="M1181.91 587.56c-38.44 7.27-37.88 73.17 2.35 78.44 16.16 2.11 32.64-1.61 40.69-17.3 8.62-16.81 7.2-41.04-8.05-54.01-9.37-7.97-22.99-9.4-34.99-7.13M1361.89 637.52c5.13 23.86 25.82 32.83 48.67 27.8 32.13-7.07 35.39-57.11 9.92-73.24-11.72-7.43-33.69-7.6-44.92 1.24-12.83 10.11-17.05 28.48-13.67 44.2M1530.06 655.95l1.37 7.18a1.32 1.32 0 0 0 1.31 1.07l19.26-.27a1.65 1.65 0 0 0 .65-3.16c-3.94-1.74-3.61-8.32-3.61-11.58q-.03-20.81-.1-41.63c-.06-20.23-30.32-22.4-44.02-18.89q-18.25 4.67-19.69 23.88a.64.64 0 0 0 .64.69l17.86.05a.56.55-86.5 0 0 .55-.49c.78-6.72 5.1-9.37 11.59-9.76 5.73-.34 14.79.96 13.52 8.75-.58 3.62-4.14 5.54-7.39 5.95-18.2 2.29-43.1 4.11-38.91 30.78 3.06 19.44 26.39 21.69 39.93 12.8 2.2-1.45 4.48-3.54 6.6-5.51q.35-.32.44.14M1583.25 598.99v-9.23q0-.49-.49-.49l-17.99-.06q-.52 0-.52.52v74.03q0 .52.51.52l18.49-.09q.68-.01.67-.68-.62-34.98.13-43.98 1.27-15.13 14.53-15.78c7.31-.36 13.08 3.72 13.11 11.33q.09 24.2.05 48.51 0 .6.6.6l19.1-.02q.52 0 .52-.51.11-23.33.07-46.66c-.02-12.74-2.13-24.05-16.03-28.23q-8.75-2.64-17.66-.59c-7.6 1.74-10.31 5.7-14.67 10.96q-.42.51-.42-.15M1913.54 599.01l-.05-9.25q-.01-.48-.48-.48l-18.1-.09q-.41 0-.41.4v74.17q0 .51.51.51l18.76-.21q.43 0 .44-.44.14-26.23.03-41.12c-.08-11.13 5.67-20.84 18.36-18.5q9.03 1.66 9.24 10.45.59 24.59.3 49.01-.01.89.88.87l16.81-.33q.4-.01.75.15.63.29 1.14.1.5-.19.5-.72.15-26.55-.16-53.08c-.22-18.45-17.42-26.17-33.27-22.34-6.59 1.59-11.04 5.54-14.7 11.07q-.55.82-.55-.17M2024.5 653.71c.65 12.36 0 26.57-16.7 26.13-6.01-.16-10.9-.96-12.85-7.06q-.17-.53-.73-.53H1974q-.54 0-.48.55c2.61 22.51 30.78 24.01 47.54 20.71 15.47-3.05 22.75-14.75 22.87-29.76q.3-36.84.35-73.99a.76.76 0 0 0-.76-.76h-18.28q-.51 0-.51.51l.06 9a.33.33 0 0 1-.62.17c-7.55-12.83-24.57-14.54-36.1-7.43-15.37 9.49-18.42 31.1-15.18 47.18 3.5 17.34 17.41 28.2 35.4 25.69q10.33-1.44 15.9-10.49a.17.17 0 0 1 .31.08M1675.39 643.18l-15.88-53.56q-.19-.62-.84-.62h-20.48q-.72 0-.48.68 13.31 37.93 26.67 75.87.74 2.11.22 3.94c-2.58 9-7.14 9.43-15.78 8.96q-.57-.03-.57.54v14.49q0 .57.56.62 8.68.85 16.68-.37c9.93-1.52 13.69-11.11 17.01-20.28q9.37-25.91 29.33-83.94.18-.51-.36-.51h-19.76a.74.74 0 0 0-.71.54l-15.04 53.64q-.27.99-.57 0M1879.75 589.43a.43.43 0 0 0-.43-.43h-19.14a.43.43 0 0 0-.43.43v74.32a.43.43 0 0 0 .43.43h19.14a.43.43 0 0 0 .43-.43v-74.32" vector-effect="non-scaling-stroke"/><path stroke="#aeca97" d="M1064.5 635.58a.58.58 0 0 0-.58-.58H202.58a.58.58 0 0 0-.58.58v17.6a.58.58 0 0 0 .58.58h861.34a.58.58 0 0 0 .58-.58v-17.6" vector-effect="non-scaling-stroke"/><path stroke="#6c845d" d="M2182.29 891.48c-1.64-.58-6.82-.01-8.79-.02q-1086.46-.21-2172.91-.21-.03 0-.05.02-.11.1-.17.25-.09.23.16.23h2181.71q.79 0 .05-.27" vector-effect="non-scaling-stroke"/><path stroke="#c9dcba" d="M1539.04 433.92c12.6 50.49 73.55 43.65 83.14-4.69 5.46-27.55 4.83-73.64-26.1-87.23-11.11-4.88-23.68-4-34.42 1.6-29.89 15.58-29.41 63.07-22.62 90.32M1318.09 605.41c-27.52-10-30.38 48.63-2.9 44.13 18.89-3.09 18.96-38.3 2.9-44.13M1174.18 629.07c.6 10.49 4.6 20.39 16.82 20.9 8.14.34 13.8-3.35 16.61-10.94 4.47-12.1 2.78-35.11-14.66-35.76-15.45-.57-19.49 13.33-18.77 25.8M1382.25 617.5c-2.09 9.78-1.46 29.66 11.76 32.02q17.69 3.15 21.75-13.53c3.03-12.5.35-33.82-17.54-32.72-8.74.54-14.16 5.81-15.97 14.23M1503.44 647.61c1.24 3.37 6.71 4.75 9.83 4.52 13.79-1 17.83-11.69 15.99-23.85q-.07-.45-.48-.23c-8.59 4.78-31.8 2.12-25.34 19.56M2003.45 605.31c-16.03 4.43-15.5 40.81 2.76 42.39 11.5 1.01 17.15-6.56 18.29-17.05 1.44-13.32-3.87-30.09-21.05-25.34" vector-effect="non-scaling-stroke"/></g><path fill="#93b874" d="M0 0h2183v892H0V0Zm588.3 236.18a39.06 39.06 0 0 0-39.06-39.06 39.06 39.06 0 0 0-39.06 39.06 39.06 39.06 0 0 0 39.06 39.06 39.06 39.06 0 0 0 39.06-39.06Zm171.84 232.46c-9.79.44-20.48.76-21.84-9.96q-.73-5.74-.14-18.38.02-.49.41-.78l25.5-18.98q.47-.35.83.11 13.27 16.85 26.29 33.91c1.86 2.43 5.45 7.3 4.15 10.43-1.87 4.48-13.61 3.85-19.59 3.73q-.55-.01-.54.54l.27 39.7q.01.78.79.78l130.47.03q.76 0 .76-.76v-39.72q0-.52-.52-.54-11.1-.41-16.48-1.27c-7.65-1.24-12.91-6.66-17.74-12.25q-30.3-35.07-60.49-70.32-.35-.39.08-.7 19.79-14.52 39.6-29.03 9.84-7.2 20.42-13.26c6.51-3.72 13.76-3.42 21.88-3.66q.5-.01.5-.51v-40.32a.39.39 0 0 0-.39-.39l-128.55.1q-1.31 0-1.31 1.3v39.33q0 .57.57.56c8.37-.18 34.16-1.46 16.5 13.5q-21.65 18.33-43.17 36.61a.24.24 0 0 1-.4-.18V197.71q0-.64-.64-.66c-6.73-.13-17.19-1.22-23.41 1.07-24.17 8.87-49.56 15.11-75.33 16.49a.4.39 88.5 0 0-.37.4v40.74q0 .5.5.5h30.03a.71.71 0 0 1 .71.71q.03 95.31-.01 190.73c0 7.91.78 19.44-10.24 20.29q-6.86.52-20.4.66-.59.01-.59.59v40.02q0 .5.5.5h121.34q.66 0 .66-.66v-39.86q0-.61-.61-.59Zm273.38-232.46a39.06 39.06 0 0 0-39.06-39.06 39.06 39.06 0 0 0-39.06 39.06 39.06 39.06 0 0 0 39.06 39.06 39.06 39.06 0 0 0 39.06-39.06Zm299.45 142.89q.1 33.69 0 67.66c-.04 11.9-1.1 19.45-14.71 21.19q-10.34 1.33-20.93.66-.58-.03-.58.54c-.1 13.25.76 26.75-.02 39.89a.76.76 0 0 0 .76.81l144.49-.03q.52 0 .52-.52v-40.02q0-.62-.62-.59-12.44.44-22.82-.74c-12.19-1.39-12.3-13.85-12.3-23.17q-.03-84.4 0-168.81c.01-9.5.16-19.54 11.26-21.46q7.15-1.24 23.85-.59.63.03.63-.61V213q0-.5-.5-.5h-144.78q-.53 0-.52.53l.27 39.73q.01 1.09 1.1 1.05 12.34-.46 23.66.86c8.68 1.01 11.14 8.03 11.23 15.65q.16 13.29-.01 61.21 0 .47-.47.47h-107q-.67 0-.68-.67-.27-30.11.44-58.76c.3-12.11 3.23-17.57 16.05-18.51q9.37-.69 18.54-.17.92.05.92-.88V213a.5.5 0 0 0-.5-.5H1116q-.5 0-.5.5v40.27q0 .6.59.58 15.05-.46 22.16.39c12.3 1.47 13.02 13.34 13.02 23.76q-.02 84.75-.02 169.5c0 9.43-1.28 18.55-12.35 20.17q-10.46 1.52-22.81.99-.59-.02-.59.57v40.08q0 .5.5.5l144.4-.05a.35.35 0 0 0 .35-.35v-40.18q0-.6-.6-.57-11.44.52-22.77-.78c-11.63-1.34-12.23-9.59-12.35-19.13q-.43-34.9-.14-69.65a.62.61 0 0 1 .62-.61l106.91.03a.55.55 0 0 1 .55.55Zm-817.25-27.58q.09 49.51.04 99.01c-.01 7.31.02 16.26-7.79 17.53q-6.09 1-23.27.65-.5-.01-.5.5l.02 40.13q0 .57.55.71.2.05.38-.07.23-.15.51-.15l129.62-.07q.51 0 .51-.51l-.04-39.96q0-.51-.52-.51-9.84.12-19.66-.42c-11-.61-11.84-5.92-11.83-15.59q.04-80.03 0-160.11 0-.56-.56-.57c-5.35-.12-17.36-1.27-21.88 1.05-23.54 12.06-50.78 15.83-76.63 17.66q-.47.03-.47.5l.06 38.99q0 .74.75.74h30.21q.5 0 .5.49Zm545.42 157.94.12-40.21a.59.58 89.1 0 0-.6-.59q-14.88.57-24.16-.78c-7.35-1.08-7.25-8.26-7.26-14.11q-.21-80.55-.29-161.14 0-.53-.54-.54c-5.25-.11-17.42-1.26-21.81 1.02-22.75 11.82-50.89 16.26-76.58 17.63q-.48.03-.48.51l-.12 39.55a.23.23 0 0 0 .23.23h30.36q.73 0 .74.74.04 53.61-.04 106.45c-.01 7.27-4.75 9.71-11.55 10.15q-9.53.61-19.17.37-.59-.01-.59.57l.08 40.09q0 .33.33.33l130.89.17a.44.44 0 0 0 .44-.44Zm401.69-84.46c10.84 75.36 87.31 100.46 152.65 86.25 39.88-8.68 71.86-39.2 80.79-79.22 14.03-62.88-17.3-121.62-81.59-136.14-35.52-8.02-74.6-4.23-105.85 15.72-40.32 25.74-52.57 67.7-46 113.39Zm-1165.33.55 31.15 83.75a.78.76-9.6 0 0 .73.51l55.65-.02q.42 0 .57-.39 28.87-76.65 57.74-153.29c3.2-8.49 6.54-17.25 17.36-17.49q3.64-.07 7.3-.32.5-.04.5-.53v-40.07q0-.58-.58-.58l-94.23.03q-.94.01-.94.94v39.7q0 .55.55.53 6.96-.26 13.77.97c10.72 1.93 5 14.63 2.84 21.1q-12.15 36.37-24.74 72.73-.23.65-.45 0-13.29-38.96-26.21-78.05c-5.76-17.45 5.46-17.23 19.14-16.7q.6.03.6-.57v-40q0-.73-.73-.73l-105.98.07a.54.54 0 0 0-.54.54v40.12a.67.66 1.4 0 0 .64.66c14.3.55 16.89 8.81 21.37 21.64q2.51 7.18 4.87 14.45.13.42-.01.83L252.6 445.9q-.28.78-.54-.01-14.47-44.68-29.05-89.64c-5.27-16.26-.6-18.18 15.17-17.94a.56.56 0 0 0 .57-.56v-39.98a.73.72 0 0 0-.73-.72l-111.47.11q-.55 0-.55.54v40.06q0 .56.56.58c4.23.08 11.24-.1 14.73 2.52 7.03 5.28 10.18 15.56 13.56 24.73q26.51 71.92 52.95 143.7a.73.71-9.5 0 0 .66.46l56.09.05q.45 0 .61-.43l31.66-83.86a.37.36 45.4 0 1 .68.01Zm1656.24 7.81a.18.18 0 0 1-.34 0q-13.69-40.48-27.11-80.89c-5.34-16.07 11.51-14.36 20.21-14.21q.5.01.5-.49v-40.23q0-.3-.3-.3l-106.46.06q-.49 0-.49.49v40.25q0 .54.54.54c11.13-.05 15.62 5.82 19.33 15.88q3.66 9.93 6.87 20.01.16.51-.02 1.02l-25.33 70.69a.19.18 46.1 0 1-.35-.01q-14.98-46.1-29.89-92.32c-4.94-15.29 4.07-16.21 16.17-15.42a.41.4-88 0 0 .43-.41v-40.6a.17.16 0 0 0-.17-.16l-112.08.01q-.52 0-.52.51l-.08 40.08q0 .54.53.56c4.47.18 12.48-.27 15.8 3.13 3.93 4.03 6.88 9.36 9.11 15.16 19.49 50.6 37.66 101.86 56.38 152.77q.17.46.66.46l56.03-.19q.52 0 .71-.49l31.62-83.79q.32-.84.63 0l31.23 84.05q.17.47.68.47l55.82-.21a.29.29 0 0 0 .27-.19q29.62-78.57 59.37-156.68c4.9-12.85 8.95-14.42 23.19-14.55a.58.57-.5 0 0 .57-.57v-40.25q0-.31-.31-.31l-95.08.07q-.37 0-.37.37v40.32a.33.33 0 0 0 .34.33c12.68-.43 24.44-.68 18.4 17.2q-13.17 39.01-26.49 77.84Zm-73.975 128.988a.3.3 0 0 0-.3-.301l-19.4-.034a.3.3 0 0 0-.3.3l-.03 17.42a.3.3 0 0 0 .3.3l19.4.034a.3.3 0 0 0 .3-.3l.03-17.42ZM1329.83 654.77l.24 8.75a.52.52 0 0 0 .52.51h18.02a.39.38-89.3 0 0 .39-.39V563.25q0-.5-.5-.5h-19q-.5 0-.5.5v34.42a.26.26 0 0 1-.47.15c-8.52-12.82-26.57-13.52-38.18-4.92-25.06 18.55-17.7 79.76 22.07 73.03 7.46-1.26 12.83-5.06 16.84-11.32q.54-.85.57.16ZM1797.35 598l.19-34.48q0-.52-.52-.52h-18.77q-.5 0-.5.5v100.05q0 .56.55.56l18.41.17q.54.01.55-.54.29-20.84.26-41.68c-.01-9.46 4.31-18.38 14.98-18.75 8.8-.3 12.75 6.16 12.75 14.19v46.32a.25.24 0 0 0 .25.24l19.31.04q.4 0 .4-.4.13-20.89 0-41.74c-.1-16-.1-27.97-15.85-33.28q-19.37-6.53-31.78 9.4-.23.3-.23-.08Zm-681.87 6.25q.05 21.22.03 42.45-.01 7.79 1.42 10.79c4.38 9.17 20.88 8.1 29.55 7.1q.52-.06.52-.58v-13.08q0-.52-.52-.55l-9.04-.54a2.25 2.24 87.1 0 1-2.09-1.9q-.57-3.63-.59-7.95-.07-17.82.02-35.75a.49.49 0 0 1 .49-.49h11.23q.5 0 .5-.5v-13q0-.5-.5-.5h-11.11a.66.66 0 0 1-.66-.67l.07-19.8q.01-.53-.52-.53H1116q-.5 0-.5.5v19.87a.63.63 0 0 1-.63.63h-9.37q-.5 0-.5.5v12.87a.63.62-90 0 0 .62.63h9.36q.5 0 .5.5Zm616.51 0q.03 21.93.04 43.85c0 5.26.56 10.47 4.5 13.36 6.46 4.73 18.69 3.87 26.58 3.2q.42-.04.42-.46l-.02-13.51q0-.51-.51-.49c-3.88.12-11.42 1.35-11.45-4.71q-.11-20.6-.03-41.24 0-.5.5-.5h10.97q.73 0 .73-.74l-.07-12.41q-.01-.85-.86-.85H1752q-.5 0-.5-.5v-20q0-.5-.5-.5h-18.5q-.5 0-.5.5v19.87a.63.63 0 0 1-.63.63H1722q-.5 0-.5.5v13q0 .5.5.5h9.48q.51 0 .51.5Zm-550.08-16.69c-38.44 7.27-37.88 73.17 2.35 78.44 16.16 2.11 32.64-1.61 40.69-17.3 8.62-16.81 7.2-41.04-8.05-54.01-9.37-7.97-22.99-9.4-34.99-7.13Zm179.98 49.96c5.13 23.86 25.82 32.83 48.67 27.8 32.13-7.07 35.39-57.11 9.92-73.24-11.72-7.43-33.69-7.6-44.92 1.24-12.83 10.11-17.05 28.48-13.67 44.2Zm168.17 18.43 1.37 7.18a1.32 1.32 0 0 0 1.31 1.07l19.26-.27a1.65 1.65 0 0 0 .65-3.16c-3.94-1.74-3.61-8.32-3.61-11.58q-.03-20.81-.1-41.63c-.06-20.23-30.32-22.4-44.02-18.89q-18.25 4.67-19.69 23.88a.64.64 0 0 0 .64.69l17.86.05a.56.55-86.5 0 0 .55-.49c.78-6.72 5.1-9.37 11.59-9.76 5.73-.34 14.79.96 13.52 8.75-.58 3.62-4.14 5.54-7.39 5.95-18.2 2.29-43.1 4.11-38.91 30.78 3.06 19.44 26.39 21.69 39.93 12.8 2.2-1.45 4.48-3.54 6.6-5.51q.35-.32.44.14Zm53.19-56.96v-9.23q0-.49-.49-.49l-17.99-.06q-.52 0-.52.52v74.03q0 .52.51.52l18.49-.09q.68-.01.67-.68-.62-34.98.13-43.98 1.27-15.13 14.53-15.78c7.31-.36 13.08 3.72 13.11 11.33q.09 24.2.05 48.51 0 .6.6.6l19.1-.02q.52 0 .52-.51.11-23.33.07-46.66c-.02-12.74-2.13-24.05-16.03-28.23q-8.75-2.64-17.66-.59c-7.6 1.74-10.31 5.7-14.67 10.96q-.42.51-.42-.15Zm330.29.02-.05-9.25q-.01-.48-.48-.48l-18.1-.09q-.41 0-.41.4v74.17q0 .51.51.51l18.76-.21q.43 0 .44-.44.14-26.23.03-41.12c-.08-11.13 5.67-20.84 18.36-18.5q9.03 1.66 9.24 10.45.59 24.59.3 49.01-.01.89.88.87l16.81-.33q.4-.01.75.15.63.29 1.14.1.5-.19.5-.72.15-26.55-.16-53.08c-.22-18.45-17.42-26.17-33.27-22.34-6.59 1.59-11.04 5.54-14.7 11.07q-.55.82-.55-.17Zm110.96 54.7c.65 12.36 0 26.57-16.7 26.13-6.01-.16-10.9-.96-12.85-7.06q-.17-.53-.73-.53H1974q-.54 0-.48.55c2.61 22.51 30.78 24.01 47.54 20.71 15.47-3.05 22.75-14.75 22.87-29.76q.3-36.84.35-73.99a.76.76 0 0 0-.76-.76h-18.28q-.51 0-.51.51l.06 9a.33.33 0 0 1-.62.17c-7.55-12.83-24.57-14.54-36.1-7.43-15.37 9.49-18.42 31.1-15.18 47.18 3.5 17.34 17.41 28.2 35.4 25.69q10.33-1.44 15.9-10.49a.17.17 0 0 1 .31.08Zm-349.11-10.53-15.88-53.56q-.19-.62-.84-.62h-20.48q-.72 0-.48.68 13.31 37.93 26.67 75.87.74 2.11.22 3.94c-2.58 9-7.14 9.43-15.78 8.96q-.57-.03-.57.54v14.49q0 .57.56.62 8.68.85 16.68-.37c9.93-1.52 13.69-11.11 17.01-20.28q9.37-25.91 29.33-83.94.18-.51-.36-.51h-19.76a.74.74 0 0 0-.71.54l-15.04 53.64q-.27.99-.57 0Zm204.36-53.75a.43.43 0 0 0-.43-.43h-19.14a.43.43 0 0 0-.43.43v74.32a.43.43 0 0 0 .43.43h19.14a.43.43 0 0 0 .43-.43v-74.32Zm-815.25 46.15a.58.58 0 0 0-.58-.58H202.58a.58.58 0 0 0-.58.58v17.6a.58.58 0 0 0 .58.58h861.34a.58.58 0 0 0 .58-.58v-17.6Zm1117.79 255.9c-1.64-.58-6.82-.01-8.79-.02q-1086.46-.21-2172.91-.21-.03 0-.05.02-.11.1-.17.25-.09.23.16.23h2181.71q.79 0 .05-.27Z"/><circle cx="549.24" cy="236.18" r="39.06" fill="#444f45"/><path fill="#444f45" d="M738.3 458.68c1.36 10.72 12.05 10.4 21.84 9.96q.61-.02.61.59v39.86q0 .66-.66.66H638.75q-.5 0-.5-.5v-40.02q0-.58.59-.59 13.54-.14 20.4-.66c11.02-.85 10.24-12.38 10.24-20.29q.04-95.42.01-190.73a.71.71 0 0 0-.71-.71h-30.03q-.5 0-.5-.5v-40.74a.4.39 88.5 0 1 .37-.4c25.77-1.38 51.16-7.62 75.33-16.49 6.22-2.29 16.68-1.2 23.41-1.07q.64.02.64.66v190.55a.24.24 0 0 0 .4.18q21.52-18.28 43.17-36.61c17.66-14.96-8.13-13.68-16.5-13.5q-.57.01-.57-.56v-39.33q0-1.3 1.31-1.3l128.55-.1a.39.39 0 0 1 .39.39v40.32q0 .5-.5.51c-8.12.24-15.37-.06-21.88 3.66q-10.58 6.06-20.42 13.26-19.81 14.51-39.6 29.03-.43.31-.08.7 30.19 35.25 60.49 70.32c4.83 5.59 10.09 11.01 17.74 12.25q5.38.86 16.48 1.27.52.02.52.54v39.72q0 .76-.76.76l-130.47-.03q-.78 0-.79-.78l-.27-39.7q-.01-.55.54-.54c5.98.12 17.72.75 19.59-3.73 1.3-3.13-2.29-8-4.15-10.43q-13.02-17.06-26.29-33.91-.36-.46-.83-.11l-25.5 18.98q-.39.29-.41.78-.59 12.64.14 18.38Z"/><circle cx="994.46" cy="236.18" r="39.06" fill="#444f45"/><path fill="#fff" d="M1332.97 379.07a.55.55 0 0 0-.55-.55l-106.91-.03a.62.61 0 0 0-.62.61q-.29 34.75.14 69.65c.12 9.54.72 17.79 12.35 19.13q11.33 1.3 22.77.78.6-.03.6.57v40.18a.35.35 0 0 1-.35.35l-144.4.05q-.5 0-.5-.5v-40.08q0-.59.59-.57 12.35.53 22.81-.99c11.07-1.62 12.35-10.74 12.35-20.17q0-84.75.02-169.5c0-10.42-.72-22.29-13.02-23.76q-7.11-.85-22.16-.39-.59.02-.59-.58V213q0-.5.5-.5h144.25a.5.5 0 0 1 .5.5v40.01q0 .93-.92.88-9.17-.52-18.54.17c-12.82.94-15.75 6.4-16.05 18.51q-.71 28.65-.44 58.76.01.67.68.67h107q.47 0 .47-.47.17-47.92.01-61.21c-.09-7.62-2.55-14.64-11.23-15.65q-11.32-1.32-23.66-.86-1.09.04-1.1-1.05l-.27-39.73q-.01-.53.52-.53H1442q.5 0 .5.5v40.28q0 .64-.63.61-16.7-.65-23.85.59c-11.1 1.92-11.25 11.96-11.26 21.46q-.03 84.41 0 168.81c0 9.32.11 21.78 12.3 23.17q10.38 1.18 22.82.74.62-.03.62.59v40.02q0 .52-.52.52l-144.49.03a.76.76 0 0 1-.76-.81c.78-13.14-.08-26.64.02-39.89q0-.57.58-.54 10.59.67 20.93-.66c13.61-1.74 14.67-9.29 14.71-21.19q.1-33.97 0-67.66Z"/><path fill="#444f45" d="M515.22 351h-30.21q-.75 0-.75-.74l-.06-38.99q0-.47.47-.5c25.85-1.83 53.09-5.6 76.63-17.66 4.52-2.32 16.53-1.17 21.88-1.05q.56.01.56.57.04 80.08 0 160.11c-.01 9.67.83 14.98 11.83 15.59q9.82.54 19.66.42.52 0 .52.51l.04 39.96q0 .51-.51.51l-129.62.07q-.28 0-.51.15-.18.12-.38.07-.55-.14-.55-.71l-.02-40.13q0-.51.5-.5 17.18.35 23.27-.65c7.81-1.27 7.78-10.22 7.79-17.53q.05-49.5-.04-99.01 0-.49-.5-.49ZM1061.14 509.43a.44.44 0 0 1-.44.44l-130.89-.17q-.33 0-.33-.33l-.08-40.09q0-.58.59-.57 9.64.24 19.17-.37c6.8-.44 11.54-2.88 11.55-10.15q.08-52.84.04-106.45-.01-.74-.74-.74h-30.36a.23.23 0 0 1-.23-.23l.12-39.55q0-.48.48-.51c25.69-1.37 53.83-5.81 76.58-17.63 4.39-2.28 16.56-1.13 21.81-1.02q.54.01.54.54.08 80.59.29 161.14c.01 5.85-.09 13.03 7.26 14.11q9.28 1.35 24.16.78a.59.58 89.1 0 1 .6.59l-.12 40.21Z"/><path fill="#fff" d="M1615.48 511.22c-65.34 14.21-141.81-10.89-152.65-86.25-6.57-45.69 5.68-87.65 46-113.39 31.25-19.95 70.33-23.74 105.85-15.72 64.29 14.52 95.62 73.26 81.59 136.14-8.93 40.02-40.91 70.54-80.79 79.22Zm-76.44-77.3c12.6 50.49 73.55 43.65 83.14-4.69 5.46-27.55 4.83-73.64-26.1-87.23-11.11-4.88-23.68-4-34.42 1.6-29.89 15.58-29.41 63.07-22.62 90.32Z"/><path fill="#444f45" d="M297.5 425.52a.37.36 45.4 0 0-.68-.01l-31.66 83.86q-.16.43-.61.43l-56.09-.05a.73.71-9.5 0 1-.66-.46q-26.44-71.78-52.95-143.7c-3.38-9.17-6.53-19.45-13.56-24.73-3.49-2.62-10.5-2.44-14.73-2.52q-.56-.02-.56-.58V297.7q0-.54.55-.54l111.47-.11a.73.72 0 0 1 .73.72v39.98a.56.56 0 0 1-.57.56c-15.77-.24-20.44 1.68-15.17 17.94q14.58 44.96 29.05 89.64.26.79.54.01l25.27-70.55q.14-.41.01-.83-2.36-7.27-4.87-14.45c-4.48-12.83-7.07-21.09-21.37-21.64a.67.66 1.4 0 1-.64-.66v-40.12a.54.54 0 0 1 .54-.54l105.98-.07q.73 0 .73.73v40q0 .6-.6.57c-13.68-.53-24.9-.75-19.14 16.7q12.92 39.09 26.21 78.05.22.65.45 0 12.59-36.36 24.74-72.73c2.16-6.47 7.88-19.17-2.84-21.1q-6.81-1.23-13.77-.97-.55.02-.55-.53v-39.7q0-.93.94-.94l94.23-.03q.58 0 .58.58v40.07q0 .49-.5.53-3.66.25-7.3.32c-10.82.24-14.16 9-17.36 17.49q-28.87 76.64-57.74 153.29-.15.39-.57.39l-55.65.02a.78.76-9.6 0 1-.73-.51l-31.15-83.75Z"/><path fill="#fff" d="M1953.74 433.33q13.32-38.83 26.49-77.84c6.04-17.88-5.72-17.63-18.4-17.2a.33.33 0 0 1-.34-.33v-40.32q0-.37.37-.37l95.08-.07q.31 0 .31.31v40.25a.58.57-.5 0 1-.57.57c-14.24.13-18.29 1.7-23.19 14.55q-29.75 78.11-59.37 156.68a.29.29 0 0 1-.27.19l-55.82.21q-.51 0-.68-.47l-31.23-84.05q-.31-.84-.63 0l-31.62 83.79q-.19.49-.71.49l-56.03.19q-.49 0-.66-.46c-18.72-50.91-36.89-102.17-56.38-152.77-2.23-5.8-5.18-11.13-9.11-15.16-3.32-3.4-11.33-2.95-15.8-3.13q-.53-.02-.53-.56l.08-40.08q0-.51.52-.51l112.08-.01a.17.16 0 0 1 .17.16v40.6a.41.4-88 0 1-.43.41c-12.1-.79-21.11.13-16.17 15.42q14.91 46.22 29.89 92.32a.19.18 46.1 0 0 .35.01l25.33-70.69q.18-.51.02-1.02-3.21-10.08-6.87-20.01c-3.71-10.06-8.2-15.93-19.33-15.88q-.54 0-.54-.54v-40.25q0-.49.49-.49l106.46-.06q.3 0 .3.3v40.23q0 .5-.5.49c-8.7-.15-25.55-1.86-20.21 14.21q13.42 40.41 27.11 80.89a.18.18 0 0 0 .34 0Z"/><path fill="#93b874" d="M1622.18 429.23c-9.59 48.34-70.54 55.18-83.14 4.69-6.79-27.25-7.27-74.74 22.62-90.32 10.74-5.6 23.31-6.48 34.42-1.6 30.93 13.59 31.56 59.68 26.1 87.23Z"/><rect width="20" height="18.02" x="-10" y="-9.01" fill="#fff" rx=".3" transform="rotate(.1 -326229.673 1071573.07)"/><path fill="#fff" d="M1329.26 654.61c-4.01 6.26-9.38 10.06-16.84 11.32-39.77 6.73-47.13-54.48-22.07-73.03 11.61-8.6 29.66-7.9 38.18 4.92a.26.26 0 0 0 .47-.15v-34.42q0-.5.5-.5h19q.5 0 .5.5v100.39a.39.38-89.3 0 1-.39.39h-18.02a.52.52 0 0 1-.52-.51l-.24-8.75q-.03-1.01-.57-.16Zm-11.17-49.2c-27.52-10-30.38 48.63-2.9 44.13 18.89-3.09 18.96-38.3 2.9-44.13ZM1797.58 598.08q12.41-15.93 31.78-9.4c15.75 5.31 15.75 17.28 15.85 33.28q.13 20.85 0 41.74 0 .4-.4.4l-19.31-.04a.25.24 0 0 1-.25-.24V617.5c0-8.03-3.95-14.49-12.75-14.19-10.67.37-14.99 9.29-14.98 18.75q.03 20.84-.26 41.68-.01.55-.55.54l-18.41-.17q-.55 0-.55-.56V563.5q0-.5.5-.5h18.77q.52 0 .52.52l-.19 34.48q0 .38.23.08ZM1114.98 603.75h-9.36a.63.62-90 0 1-.62-.63v-12.87q0-.5.5-.5h9.37a.63.63 0 0 0 .63-.63v-19.87q0-.5.5-.5h18.28q.53 0 .52.53l-.07 19.8a.66.66 0 0 0 .66.67h11.11q.5 0 .5.5v13q0 .5-.5.5h-11.23a.49.49 0 0 0-.49.49q-.09 17.93-.02 35.75.02 4.32.59 7.95a2.25 2.24 87.1 0 0 2.09 1.9l9.04.54q.52.03.52.55v13.08q0 .52-.52.58c-8.67 1-25.17 2.07-29.55-7.1q-1.43-3-1.42-10.79.02-21.23-.03-42.45 0-.5-.5-.5ZM1731.48 603.75H1722q-.5 0-.5-.5v-13q0-.5.5-.5h9.37a.63.63 0 0 0 .63-.63v-19.87q0-.5.5-.5h18.5q.5 0 .5.5v20q0 .5.5.5h10.79q.85 0 .86.85l.07 12.41q0 .74-.73.74h-10.97q-.5 0-.5.5-.08 20.64.03 41.24c.03 6.06 7.57 4.83 11.45 4.71q.51-.02.51.49l.02 13.51q0 .42-.42.46c-7.89.67-20.12 1.53-26.58-3.2-3.94-2.89-4.5-8.1-4.5-13.36q-.01-21.92-.04-43.85 0-.5-.51-.5Z"/><path fill="#fff" d="M1184.26 666c-40.23-5.27-40.79-71.17-2.35-78.44 12-2.27 25.62-.84 34.99 7.13 15.25 12.97 16.67 37.2 8.05 54.01-8.05 15.69-24.53 19.41-40.69 17.3Zm-10.08-36.93c.6 10.49 4.6 20.39 16.82 20.9 8.14.34 13.8-3.35 16.61-10.94 4.47-12.1 2.78-35.11-14.66-35.76-15.45-.57-19.49 13.33-18.77 25.8ZM1410.56 665.32c-22.85 5.03-43.54-3.94-48.67-27.8-3.38-15.72.84-34.09 13.67-44.2 11.23-8.84 33.2-8.67 44.92-1.24 25.47 16.13 22.21 66.17-9.92 73.24Zm-28.31-47.82c-2.09 9.78-1.46 29.66 11.76 32.02q17.69 3.15 21.75-13.53c3.03-12.5.35-33.82-17.54-32.72-8.74.54-14.16 5.81-15.97 14.23ZM1529.62 655.81c-2.12 1.97-4.4 4.06-6.6 5.51-13.54 8.89-36.87 6.64-39.93-12.8-4.19-26.67 20.71-28.49 38.91-30.78 3.25-.41 6.81-2.33 7.39-5.95 1.27-7.79-7.79-9.09-13.52-8.75-6.49.39-10.81 3.04-11.59 9.76a.56.55-86.5 0 1-.55.49l-17.86-.05a.64.64 0 0 1-.64-.69q1.44-19.21 19.69-23.88c13.7-3.51 43.96-1.34 44.02 18.89q.07 20.82.1 41.63c0 3.26-.33 9.84 3.61 11.58a1.65 1.65 0 0 1-.65 3.16l-19.26.27a1.32 1.32 0 0 1-1.31-1.07l-1.37-7.18q-.09-.46-.44-.14Zm-26.18-8.2c1.24 3.37 6.71 4.75 9.83 4.52 13.79-1 17.83-11.69 15.99-23.85q-.07-.45-.48-.23c-8.59 4.78-31.8 2.12-25.34 19.56ZM1583.67 599.14c4.36-5.26 7.07-9.22 14.67-10.96q8.91-2.05 17.66.59c13.9 4.18 16.01 15.49 16.03 28.23q.04 23.33-.07 46.66 0 .51-.52.51l-19.1.02q-.6 0-.6-.6.04-24.31-.05-48.51c-.03-7.61-5.8-11.69-13.11-11.33q-13.26.65-14.53 15.78-.75 9-.13 43.98.01.67-.67.68l-18.49.09q-.51 0-.51-.52v-74.03q0-.52.52-.52l17.99.06q.49 0 .49.49v9.23q0 .66.42.15ZM1914.09 599.18c3.66-5.53 8.11-9.48 14.7-11.07 15.85-3.83 33.05 3.89 33.27 22.34q.31 26.53.16 53.08 0 .53-.5.72-.51.19-1.14-.1-.35-.16-.75-.15l-16.81.33q-.89.02-.88-.87.29-24.42-.3-49.01-.21-8.79-9.24-10.45c-12.69-2.34-18.44 7.37-18.36 18.5q.11 14.89-.03 41.12-.01.44-.44.44l-18.76.21q-.51 0-.51-.51v-74.17q0-.4.41-.4l18.1.09q.47 0 .48.48l.05 9.25q0 .99.55.17ZM2024.5 653.71a.17.17 0 0 0-.31-.08q-5.57 9.05-15.9 10.49c-17.99 2.51-31.9-8.35-35.4-25.69-3.24-16.08-.19-37.69 15.18-47.18 11.53-7.11 28.55-5.4 36.1 7.43a.33.33 0 0 0 .62-.17l-.06-9q0-.51.51-.51h18.28a.76.76 0 0 1 .76.76q-.05 37.15-.35 73.99c-.12 15.01-7.4 26.71-22.87 29.76-16.76 3.3-44.93 1.8-47.54-20.71q-.06-.55.48-.55h20.22q.56 0 .73.53c1.95 6.1 6.84 6.9 12.85 7.06 16.7.44 17.35-13.77 16.7-26.13Zm-21.05-48.4c-16.03 4.43-15.5 40.81 2.76 42.39 11.5 1.01 17.15-6.56 18.29-17.05 1.44-13.32-3.87-30.09-21.05-25.34ZM1675.39 643.18q.3.99.57 0l15.04-53.64a.74.74 0 0 1 .71-.54h19.76q.54 0 .36.51-19.96 58.03-29.33 83.94c-3.32 9.17-7.08 18.76-17.01 20.28q-8 1.22-16.68.37-.56-.05-.56-.62v-14.49q0-.57.57-.54c8.64.47 13.2.04 15.78-8.96q.52-1.83-.22-3.94-13.36-37.94-26.67-75.87-.24-.68.48-.68h20.48q.65 0 .84.62l15.88 53.56Z"/><rect width="20" height="75.18" x="1859.75" y="589" fill="#fff" rx=".43"/><path fill="#93b874" d="M1191 649.97c-12.22-.51-16.22-10.41-16.82-20.9-.72-12.47 3.32-26.37 18.77-25.8 17.44.65 19.13 23.66 14.66 35.76-2.81 7.59-8.47 11.28-16.61 10.94ZM1394.01 649.52c-13.22-2.36-13.85-22.24-11.76-32.02 1.81-8.42 7.23-13.69 15.97-14.23 17.89-1.1 20.57 20.22 17.54 32.72q-4.06 16.68-21.75 13.53ZM1315.19 649.54c-27.48 4.5-24.62-54.13 2.9-44.13 16.06 5.83 15.99 41.04-2.9 44.13ZM2006.21 647.7c-18.26-1.58-18.79-37.96-2.76-42.39 17.18-4.75 22.49 12.02 21.05 25.34-1.14 10.49-6.79 18.06-18.29 17.05ZM1513.27 652.13c-3.12.23-8.59-1.15-9.83-4.52-6.46-17.44 16.75-14.78 25.34-19.56q.41-.22.48.23c1.84 12.16-2.2 22.85-15.99 23.85Z"/><rect width="862.5" height="18.76" x="202" y="635" fill="#c9dcba" rx=".58"/><path fill="#444f45" d="M2173.5 891.46c1.97.01 7.15-.56 8.79.02q.74.27-.05.27H.53q-.25 0-.16-.23.06-.15.17-.25.02-.02.05-.02 1086.45 0 2172.91.21Z"/></svg>